# xmcd
#
# Track frame offsets: 
#        150
#        15453
#        32634
#        46266
#        59198
#        73049
#        88398
#        108644
#        125665
#        144943
#
# Disc length: 2146 seconds
#
# Revision: 0
# Processed by: cddbd v1.5.2PL0 Copyright (c) Steve Scherf et al.
# Submitted via: ExactAudioCopyFreeDBPlugin 1.0
#
DISCID=9208600a
DTITLE=Xheki - E Pabesë
DYEAR=2014
DGENRE=Pop
TTITLE0=E Pa Bese
TTITLE1=Jalla, Jalla
TTITLE2=Luj Luj
TTITLE3=Dhelpër Dinake
TTITLE4=Dridhma Belin
TTITLE5=Lajkatare
TTITLE6=Pa Adresë
TTITLE7=Falje Mos Kërko
TTITLE8=Tolerante
TTITLE9=Mbreteresh
EXTD=
EXTT0=
EXTT1=
EXTT2=
EXTT3=
EXTT4=
EXTT5=
EXTT6=
EXTT7=
EXTT8=
EXTT9=
PLAYORDER=
